HIERARCHY
ROOT Hips
{
	OFFSET 0.00000 0.00000 0.00000
	CHANNELS 6 Xposition Yposition Zposition Zrotation Yrotation Xrotation 
	JOINT LHipJoint
	{
		OFFSET 0 0 0
		CHANNELS 3 Zrotation Yrotation Xrotation
		JOINT LeftHip
		{
			OFFSET 1.66553 -1.82942 0.76350
			CHANNELS 3 Zrotation Yrotation Xrotation
			JOINT LeftKnee
			{
				OFFSET 2.41740 -6.64177 0.00000
				CHANNELS 3 Zrotation Yrotation Xrotation
				JOINT LeftAnkle
				{
					OFFSET 2.71614 -7.46254 0.00000
					CHANNELS 3 Zrotation Yrotation Xrotation
					JOINT LeftToe
					{
						OFFSET 0.08005 -0.21993 1.82495
						CHANNELS 3 Zrotation Yrotation Xrotation
						End Site
						{
							OFFSET 0.00000 -0.00000 0.93441
						}
					}
				}
			}
		}
	}
	JOINT RHipJoint
	{
		OFFSET 0 0 0
		CHANNELS 3 Zrotation Yrotation Xrotation
		JOINT RightHip
		{
			OFFSET -1.63725 -1.82942 0.76350
			CHANNELS 3 Zrotation Yrotation Xrotation
			JOINT RightKnee
			{
				OFFSET -2.40538 -6.60872 0.00000
				CHANNELS 3 Zrotation Yrotation Xrotation
				JOINT RightAnkle
				{
					OFFSET -2.73312 -7.50919 0.00000
					CHANNELS 3 Zrotation Yrotation Xrotation
					JOINT RightToe
					{
						OFFSET -0.15567 -0.42769 1.93504
						CHANNELS 3 Zrotation Yrotation Xrotation
						End Site
						{
							OFFSET -0.00000 -0.00000 1.00100
						}
					}
				}
			}
		}
	}
	JOINT lowerback
	{
		OFFSET 0 0 0
		CHANNELS 3 Zrotation Yrotation Xrotation
		JOINT Chest
		{
			OFFSET 0.00326 2.30118 -0.13017
			CHANNELS 3 Zrotation Yrotation Xrotation
			JOINT Chest2
			{
				OFFSET 0.02887 2.30677 0.00834
				CHANNELS 3 Zrotation Yrotation Xrotation
				JOINT lowerneck
				{
					OFFSET 0 0 0
					CHANNELS 3 Zrotation Yrotation Xrotation
					JOINT Neck
					{
						OFFSET 0.12946 1.68326 0.00713
						CHANNELS 3 Zrotation Yrotation Xrotation
						JOINT Head
						{
							OFFSET -0.24364 1.67243 -0.16079
							CHANNELS 3 Zrotation Yrotation Xrotation
							End Site
							{
								OFFSET -0.09229 1.70819 -0.06383
							}
						}
					}
				}
				JOINT LeftCollar
				{
					OFFSET 0 0 0
					CHANNELS 3 Zrotation Yrotation Xrotation
					JOINT LeftShoulder
					{
						OFFSET 3.28104 0.69567 -0.00556
CHANNELS 3 Zrotation Xrotation Yrotation
						JOINT LeftElbow
						{
OFFSET 0 -5.707060 -0.000000
CHANNELS 3 Zrotation Xrotation Yrotation
							JOINT LeftWrist
							{
OFFSET 0 -3.332430 0.000000
CHANNELS 3 Zrotation Xrotation Yrotation
								JOINT lhand
								{
									OFFSET 0 0 0
CHANNELS 3 Zrotation Xrotation Yrotation
									JOINT LFingers
									{
OFFSET 0 -0.792690 0.000000
CHANNELS 3 Zrotation Xrotation Yrotation
										End Site
										{
OFFSET 0 -0.639090 0.000000
										}
									}
								}
								JOINT LThumb
								{
OFFSET 0 0.000000 0.000000
CHANNELS 3 Zrotation Xrotation Yrotation
									End Site
									{
OFFSET 0 -0.648840 0.648840
									}
								}
							}
						}
					}
				}
				JOINT RightCollar
				{
					OFFSET 0 0 0
					CHANNELS 3 Zrotation Yrotation Xrotation
					JOINT RightShoulder
					{
						OFFSET -3.40955 0.64424 0.14010
CHANNELS 3 Zrotation Xrotation Yrotation
						JOINT RightElbow
						{
OFFSET 0 -5.881760 -0.000000
CHANNELS 3 Zrotation Xrotation Yrotation
							JOINT RightWrist
							{
OFFSET 0 -3.281560 0.000000
CHANNELS 3 Zrotation Xrotation Yrotation
								JOINT rhand
								{
									OFFSET 0 0 0
CHANNELS 3 Zrotation Xrotation Yrotation
									JOINT RFingers
									{
OFFSET 0 -0.863130 0.000000
CHANNELS 3 Zrotation Xrotation Yrotation
										End Site
										{
OFFSET 0 -0.695870 0.000000
										}
									}
								}
								JOINT RThumb
								{
OFFSET 0 0.000000 0.000000
CHANNELS 3 Zrotation Xrotation Yrotation
									End Site
									{
OFFSET 0 -0.706500 0.706500
									}
								}
							}
						}
					}
				}
			}
		}
	}
}
MOTION
Frames: 5
Frame Time: 0.008333333333333333
24.606400 16.807600 -31.690100 -1.296100 -16.261700 -1.675000 0.000000 0.000000 0.000000 -7.111900 -8.257900 7.350000 2.182900 9.237000 26.539500 1.976100 -7.693600 -25.243300 4.363800 -12.629400 -37.996700 0.000000 0.000000 0.000000 13.475100 11.107400 -12.317800 -5.105700 -13.501900 41.277400 -2.529000 5.284400 -28.943400 -0.617000 5.027000 -13.985600 -1.904100 -4.060400 2.055700 3.162000 -5.398900 -3.587600 4.637700 -2.570600 -4.379600 14.516300 8.405000 13.475900 -25.715800 8.707600 -28.157500 -12.960300 5.554500 -8.746100 0.000000 -0.000000 0.000000 8.743500 -2.598900 -19.601800 148.868500 -41.843700 107.842500 29.286700 -35.027800 -41.951400 0.000000 0.000000 0.000000 -7.125000 0.000000 0.000000 -14.358000 75.458800 10.339600 0.000000 -0.000000 0.000000 -10.307100 15.433600 31.999400 -137.934700 -49.247000 -100.010000 -23.172200 -29.010800 5.755800 0.000000 0.000000 0.000000 7.125000 0.000000 -0.000000 2.976400 36.223300 0.643000
24.695439 16.682759 -31.678488 -1.870070 -17.799072 -1.277666 0.000000 0.000000 0.000000 -7.081501 -7.660253 7.142789 2.334640 9.530851 27.470423 2.476326 -6.433908 -28.485627 4.446089 -12.731472 -38.371492 0.000000 0.000000 0.000000 13.594418 12.566548 -13.768303 -5.593026 -14.022083 43.325820 -2.657086 5.459790 -29.677985 -0.691909 5.317494 -14.816515 -1.413524 -3.620245 1.710724 3.488460 -4.786975 -2.924272 4.613544 -2.303246 -3.559806 16.121354 8.795349 10.746148 -26.231803 9.229460 -28.026190 -13.143237 5.591609 -7.859126 0.000000 0.000000 0.000000 8.666702 -10.296403 -19.880728 150.137496 -40.774950 108.680123 34.968646 -34.109989 -40.800599 0.000000 0.000000 0.000000 -7.125000 0.000000 0.000000 -2.496972 76.456785 1.845635 0.000000 0.000000 0.000000 -10.787075 8.404452 27.874956 -141.889517 -46.908698 -102.953388 -22.340366 -26.804110 3.457994 0.000000 0.000000 0.000000 7.125000 0.000000 0.000000 3.502389 33.702261 0.971696
24.864888 16.699223 -31.578708 -2.252777 -18.812447 -1.083440 0.000000 0.000000 0.000000 -7.140732 -6.593011 6.771765 2.424619 9.699583 28.009160 2.492732 -7.271583 -28.508644 4.214124 -12.438679 -37.303997 0.000000 0.000000 0.000000 13.400736 13.345549 -13.157114 -5.391117 -13.811090 42.486046 -2.573750 5.822290 -29.138613 -0.693333 5.323003 -14.832177 -0.913872 -3.512530 1.320417 4.035163 -4.593529 -4.009142 4.927609 -2.185249 -4.482731 16.306384 8.165104 13.711786 -25.718906 8.860465 -28.386354 -13.334496 5.449988 -8.708120 0.000000 0.000000 0.000000 4.366723 -9.238601 -20.972028 151.552594 -39.524595 109.592695 27.697304 -39.485428 -38.887127 0.000000 0.000000 0.000000 -7.125000 0.000000 0.000000 -11.903067 72.002235 7.672162 0.000000 0.000000 0.000000 -13.030434 4.686162 23.947105 -145.586482 -44.387421 -105.597988 -22.743364 -25.616482 1.980201 0.000000 0.000000 0.000000 7.125000 0.000000 0.000000 3.092397 32.116927 0.976357
25.079208 16.723617 -31.452955 -1.457719 -19.139586 -1.227736 0.000000 0.000000 0.000000 -8.523743 -5.581868 6.035325 2.571661 9.966984 28.869969 2.504993 -8.441657 -28.511892 4.176676 -12.391916 -37.132841 0.000000 0.000000 0.000000 11.864904 13.969648 -12.683469 -5.294405 -13.707831 42.079528 -2.540788 4.715825 -29.099377 -1.009855 6.394122 -17.932294 -1.099741 -3.163720 0.821550 3.808350 -4.140587 -4.224554 4.752550 -1.954555 -4.467944 16.344050 8.031022 12.092422 -25.061385 8.658917 -27.805136 -12.840799 5.217787 -8.289812 0.000000 0.000000 0.000000 1.245422 -5.038905 -24.294044 152.318719 -38.821084 110.076704 18.531081 -45.597373 -36.900972 0.000000 0.000000 0.000000 -7.125000 0.000000 0.000000 -21.218107 67.217399 11.557841 0.000000 0.000000 0.000000 -13.911927 -1.247553 20.966701 -147.350375 -43.058957 -106.817724 -26.202591 -25.049955 -0.835946 0.000000 0.000000 0.000000 7.125000 0.000000 0.000000 0.285640 29.047894 0.110731
25.328925 16.592528 -31.364476 -0.752349 -19.037808 -1.839146 0.000000 0.000000 0.000000 -9.661557 -4.346350 4.523442 2.990373 10.679227 31.205856 2.823224 -9.834076 -30.296951 4.248140 -12.483266 -37.464052 0.000000 0.000000 0.000000 10.090238 14.552544 -13.380019 -5.857830 -14.289032 44.408174 -2.653109 4.238935 -29.847570 -1.231682 7.038132 -19.828439 -0.594925 -2.415131 1.531801 2.843993 -3.150448 -3.842602 3.448708 -1.494578 -4.634929 16.919182 7.946252 8.753055 -25.046226 8.397772 -25.990223 -12.427778 4.926572 -7.070345 0.000000 0.000000 0.000000 2.726529 -0.596955 -28.821366 152.312014 -38.827331 110.072472 12.549289 -48.312093 -37.365860 0.000000 0.000000 0.000000 -7.125000 0.000000 0.000000 -28.554929 65.877488 14.923568 0.000000 0.000000 0.000000 -14.762620 -5.841107 18.046525 -147.893619 -42.631819 -107.187204 -29.513932 -25.231306 -4.186996 0.000000 0.000000 0.000000 7.125000 0.000000 0.000000 -2.159438 25.170753 -1.036895
